<svg width="1588" height="200" viewBox="0 0 1588 200" fill="none" xmlns="http://www.w3.org/2000/svg">
<path d="M9.71 20.54C9.71 18.92 9.19 17.59 8.15 16.55C7.11 15.51 4.39 14.76 0 14.3V10.14H115.17C131.13 10.14 145 12.45 156.8 17.08C168.59 21.71 178.31 28.13 185.94 36.33C193.57 44.54 199.3 54.2 203.11 65.3C206.93 76.4 208.83 88.43 208.83 101.38C208.83 113.18 206.8 124.57 202.76 135.55C198.71 146.54 192.58 156.25 184.37 164.69C176.16 173.14 165.98 179.9 153.84 184.98C141.7 190.07 127.53 192.61 111.34 192.61H0V188.45C4.39 187.99 7.11 187.24 8.15 186.2C9.19 185.16 9.71 183.83 9.71 182.21V20.55V20.54ZM105.81 151.67C124.08 151.67 137.26 146.99 145.36 137.62C153.45 128.25 157.5 116.17 157.5 101.37C157.5 86.57 153.45 74.48 145.36 65.12C137.26 55.75 124.08 51.07 105.81 51.07H61.75V151.67H105.81Z" fill="white"/>
<path d="M226.53 188.44C230.92 187.98 233.64 187.23 234.68 186.19C235.72 185.15 236.24 183.82 236.24 182.2V20.54C236.24 18.92 235.72 17.59 234.68 16.55C233.64 15.51 230.92 14.76 226.53 14.3V10.14H297.99V14.3C293.59 14.77 290.88 15.51 289.84 16.55C288.8 17.59 288.28 18.92 288.28 20.54V182.2C288.28 183.82 288.8 185.15 289.84 186.19C290.88 187.23 293.6 187.98 297.99 188.44V192.6H226.53V188.44Z" fill="white"/>
<path d="M265.26 192.61H297.99V188.45C293.59 187.99 290.88 187.24 289.84 186.2C288.8 185.16 288.28 183.83 288.28 182.21V147.37C279.97 162.06 272.28 177.15 265.26 192.61Z" fill="white"/>
<path d="M345.17 122.18C344.7 123.57 344.48 126 344.48 129.47C344.48 131.78 346.62 134.39 350.9 137.28C355.18 140.17 360.73 142.89 367.55 145.43C374.37 147.98 382.18 150.11 390.97 151.85C399.76 153.58 408.66 154.45 417.68 154.45C435.03 154.45 447.74 152.43 455.84 148.38C463.93 144.34 467.98 138.49 467.98 130.86C467.98 126.7 464.45 123.75 457.4 122.01C450.34 120.28 441.5 118.89 430.86 117.85C420.22 116.81 408.77 115.65 396.52 114.38C384.26 113.11 372.81 110.8 362.18 107.44C351.54 104.09 342.69 99.23 335.64 92.87C328.58 86.51 325.06 77.78 325.06 66.68C325.06 57.89 327.08 49.91 331.13 42.7401C335.18 35.5701 340.84 29.4401 348.13 24.3501C355.41 19.2701 364.26 15.2801 374.67 12.3801C385.08 9.49005 396.64 8.04004 409.36 8.04004C421.15 8.04004 432.14 8.79004 442.32 10.29C452.49 11.8 461.51 13.4701 469.38 15.3201C477.24 17.1701 483.83 18.8501 489.15 20.3501C494.47 21.8601 498.28 22.6001 500.6 22.6001C502.92 22.6001 504.76 22.08 506.15 21.04C507.54 20 508.81 18.79 509.97 17.4L513.79 18.79L489.85 67.01L485.69 64.93V61.11C485.69 59.03 483.44 56.89 478.92 54.69C474.41 52.49 468.69 50.53 461.75 48.79C454.81 47.05 447.06 45.61 438.51 44.45C429.95 43.3 421.63 42.72 413.53 42.72C398.49 42.72 387.97 44.45 381.96 47.92C375.94 51.39 372.94 55.09 372.94 59.0201C372.94 62.9501 375.02 65.9 379.18 67.87C383.34 69.84 388.77 71.2801 395.49 72.2101C402.19 73.1401 409.83 73.89 418.39 74.47C426.94 75.05 435.74 75.9201 444.75 77.0701C453.77 78.2301 462.56 79.85 471.12 81.93C479.67 84.01 487.31 87.08 494.02 91.12C500.72 95.17 506.16 100.49 510.33 107.08C514.49 113.67 516.57 121.94 516.57 131.88C516.57 139.51 515.01 147.03 511.89 154.43C508.77 161.83 503.45 168.48 495.93 174.38C488.41 180.28 478.35 184.96 465.75 188.43C453.14 191.9 437.48 193.63 418.74 193.63C404.17 193.63 391.62 192.94 381.1 191.55C370.57 190.16 361.61 188.49 354.21 186.52C346.8 184.56 340.97 182.76 336.69 181.14C332.41 179.52 329.23 178.71 327.15 178.71C325.76 178.71 324.55 179.18 323.51 180.1C322.47 181.03 321.37 182.07 320.21 183.22L316.05 182.18L341.72 120.43L345.19 122.16L345.17 122.18Z" fill="white"/>
<path d="M329.23 84.8C330.88 87.82 333.01 90.51 335.63 92.87C342.68 99.23 351.53 104.09 362.17 107.44C372.8 110.8 384.25 113.11 396.51 114.38C408.77 115.65 420.21 116.81 430.85 117.85C441.49 118.89 450.33 120.28 457.39 122.01C464.44 123.74 467.97 126.69 467.97 130.86C467.97 138.49 463.92 144.34 455.83 148.38C447.73 152.43 435.02 154.45 417.67 154.45C408.65 154.45 399.75 153.58 390.96 151.85C382.17 150.12 374.36 147.98 367.54 145.43C360.72 142.89 355.17 140.17 350.89 137.28C346.61 134.39 344.47 131.79 344.47 129.47C344.47 126 344.7 123.57 345.16 122.18L341.69 120.45L316.02 182.2L320.18 183.24C321.34 182.09 322.43 181.04 323.48 180.12C324.52 179.2 325.73 178.73 327.12 178.73C329.2 178.73 332.38 179.54 336.66 181.16C340.94 182.78 346.77 184.57 354.18 186.54C361.58 188.51 370.54 190.18 381.07 191.57C391.59 192.96 404.14 193.65 418.71 193.65C437.44 193.65 453.11 191.92 465.72 188.45C478.32 184.98 488.38 180.3 495.9 174.4C503.41 168.5 508.74 161.86 511.86 154.45C514.98 147.05 516.54 139.53 516.54 131.9C516.54 121.96 514.46 113.69 510.3 107.1C506.14 100.51 500.7 95.19 493.99 91.14C487.28 87.1 479.65 84.03 471.09 81.95C462.53 79.87 453.74 78.25 444.72 77.09C435.7 75.94 426.91 75.0701 418.36 74.4901C409.8 73.9201 402.17 73.16 395.46 72.23C388.75 71.31 383.32 69.86 379.15 67.89C374.99 65.93 372.91 62.98 372.91 59.04C372.91 55.1 375.91 51.41 381.93 47.94C387.94 44.47 398.46 42.7401 413.5 42.7401C421.59 42.7401 429.92 43.32 438.48 44.47C447.03 45.63 454.79 47.07 461.72 48.81C468.65 50.55 474.38 52.5101 478.89 54.7101C483.4 56.9101 485.66 59.05 485.66 61.1301V64.95L489.82 67.03L513.76 18.81L509.94 17.42C508.78 18.81 507.51 20.02 506.12 21.06C504.73 22.1 502.88 22.62 500.57 22.62C498.26 22.62 494.44 21.87 489.12 20.37C483.8 18.87 477.21 17.19 469.35 15.34C461.49 13.49 452.47 11.82 442.29 10.31C432.11 8.81004 421.13 8.05005 409.33 8.05005C405.42 8.05005 401.64 8.20004 397.95 8.48004C372.85 31.81 349.84 57.36 329.21 84.81L329.23 84.8Z" fill="white"/>
<path d="M699.71 75C699.94 74.31 700.11 73.5601 700.23 72.7401C700.34 71.93 700.4 70.95 700.4 69.79C700.4 67.94 698.84 66.09 695.72 64.2401C692.6 62.3901 688.43 60.7201 683.23 59.2101C678.03 57.7101 672.07 56.43 665.36 55.39C658.65 54.35 651.6 53.83 644.2 53.83C637.26 53.83 629.98 54.64 622.34 56.26C614.71 57.88 607.71 60.5401 601.35 64.2401C594.99 67.9401 589.78 72.86 585.74 78.98C581.69 85.11 579.67 92.57 579.67 101.36C579.67 110.15 581.69 117.61 585.74 123.74C589.78 129.87 594.99 134.79 601.35 138.48C607.71 142.18 614.71 144.84 622.34 146.46C629.97 148.08 637.26 148.89 644.2 148.89C647.2 148.89 651.95 148.37 658.42 147.33C664.89 146.29 671.37 144.85 677.85 142.99C684.32 141.14 690.05 139.06 695.02 136.75C699.99 134.44 702.48 132.01 702.48 129.46C702.48 128.31 702.25 127.38 701.79 126.68C701.32 125.99 700.86 125.18 700.4 124.25L704.22 121.82L739.95 176.29L735.79 178.72C735.32 177.57 734.69 176.81 733.88 176.47C733.07 176.12 732.08 175.95 730.93 175.95C729.31 175.95 726.07 176.94 721.22 178.9C716.36 180.87 710.06 182.95 702.31 185.14C694.56 187.34 685.48 189.3 675.08 191.04C664.67 192.77 652.99 193.64 640.04 193.64C626.16 193.64 612.4 191.85 598.76 188.26C585.11 184.68 572.86 179.01 561.99 171.26C551.12 163.51 542.33 153.8 535.62 142.12C528.91 130.44 525.56 116.85 525.56 101.36C525.56 85.87 528.91 72.2801 535.62 60.6001C542.33 48.9201 551.11 39.2101 561.99 31.4601C572.86 23.7101 585.11 17.88 598.76 13.94C612.4 10.01 626.17 8.04004 640.04 8.04004C653.91 8.04004 665.89 8.79004 675.95 10.29C686.01 11.8 694.51 13.4701 701.45 15.3201C708.15 17.1701 713.36 18.73 717.06 20C720.76 21.27 723.53 21.91 725.39 21.91C727.47 21.91 729.21 20.9901 730.59 19.1301L734.41 20.17L703.19 77.41L699.72 74.98L699.71 75Z" fill="white"/>
<path d="M853.39 8.05005C868.19 8.05005 882.12 10.08 895.19 14.12C908.25 18.17 919.7 24.1301 929.54 31.9901C939.37 39.8601 947.17 49.57 952.96 61.1301C958.74 72.7001 961.63 86.11 961.63 101.37C961.63 116.63 958.74 130.05 952.96 141.61C947.18 153.18 939.37 162.89 929.54 170.75C919.71 178.62 908.26 184.4 895.19 188.1C882.12 191.8 868.19 193.65 853.39 193.65C838.59 193.65 824.65 191.8 811.59 188.1C798.52 184.4 787.07 178.62 777.24 170.75C767.41 162.89 759.6 153.18 753.82 141.61C748.04 130.05 745.15 116.63 745.15 101.37C745.15 86.11 748.04 72.7001 753.82 61.1301C759.6 49.57 767.41 39.8501 777.24 31.9901C787.07 24.1301 798.52 18.17 811.59 14.12C824.65 10.08 838.59 8.05005 853.39 8.05005ZM853.39 50.37C845.76 50.37 838.53 51.53 831.71 53.84C824.89 56.15 818.87 59.45 813.67 63.73C808.47 68.01 804.3 73.33 801.18 79.69C798.06 86.05 796.5 93.28 796.5 101.37C796.5 109.46 798.06 116.69 801.18 123.05C804.3 129.41 808.46 134.73 813.67 139.01C818.87 143.29 824.89 146.59 831.71 148.9C838.53 151.21 845.76 152.37 853.39 152.37C861.02 152.37 868.25 151.22 875.07 148.9C881.89 146.59 887.91 143.3 893.11 139.01C898.31 134.73 902.48 129.42 905.6 123.05C908.72 116.69 910.28 109.47 910.28 101.37C910.28 93.27 908.72 86.05 905.6 79.69C902.48 73.33 898.32 68.01 893.11 63.73C887.91 59.45 881.89 56.16 875.07 53.84C868.25 51.53 861.02 50.37 853.39 50.37Z" fill="white"/>
<path d="M1032.04 188.44C1034.12 187.98 1035.51 187.52 1036.2 187.05C1036.89 186.59 1037.24 186.01 1037.24 185.32C1037.24 184.86 1036.31 182.49 1034.47 178.21C1032.62 173.93 1030.25 168.32 1027.36 161.38C1024.47 154.44 1021.06 146.58 1017.13 137.79C1013.19 129 1009.2 119.87 1005.16 110.38C1001.11 100.9 997.01 91.53 992.85 82.28C988.69 73.03 984.87 64.47 981.4 56.61C977.93 48.75 974.98 41.93 972.55 36.14C970.12 30.36 968.44 26.31 967.52 24C965.9 20.07 964.63 17.53 963.7 16.37C962.77 15.22 961.39 14.52 959.54 14.29V10.13H1030.66V14.29C1027.88 14.52 1026.03 14.98 1025.11 15.68C1024.18 16.37 1023.72 17.3 1023.72 18.46C1023.72 19.15 1024.24 20.6 1025.28 22.8C1026.32 25 1028.52 29.68 1031.87 36.85C1035.22 44.02 1040.08 54.43 1046.44 68.07C1052.8 81.72 1061.41 100.33 1072.29 123.92C1082.7 101.02 1090.96 82.81 1097.09 69.28C1103.22 55.75 1107.96 45.4 1111.31 38.23C1114.66 31.06 1116.8 26.15 1117.73 23.49C1118.65 20.83 1119.12 19.04 1119.12 18.11C1119.12 16.96 1118.77 16.09 1118.08 15.51C1117.39 14.94 1116 14.53 1113.92 14.3V10.14H1173.59V14.3C1172.2 14.77 1171.1 15.23 1170.3 15.69C1169.49 16.16 1168.85 17.2 1168.39 18.81C1167.92 20.2 1166.54 23.55 1164.23 28.87C1161.91 34.19 1159.08 40.78 1155.73 48.64C1152.37 56.51 1148.67 65.24 1144.63 74.83C1140.58 84.43 1136.42 94.2 1132.14 104.14C1127.86 114.09 1123.69 123.8 1119.65 133.28C1115.6 142.77 1112.02 151.21 1108.9 158.6C1105.78 166 1103.29 172.13 1101.44 176.99C1099.59 181.85 1098.67 184.51 1098.67 184.97C1098.67 187.05 1100.28 188.09 1103.53 188.09V192.6H1032.07V188.44H1032.04Z" fill="white"/>
<path d="M1319.29 126C1318.82 123.69 1317.84 121.78 1316.34 120.28C1314.83 118.78 1312.35 118.02 1308.88 118.02H1244.35V150.28H1355.71C1357.56 150.28 1358.95 149.65 1359.87 148.37C1360.79 147.1 1361.49 144.27 1361.95 139.87H1366.11V199.19H1361.95C1361.48 196.18 1360.79 194.33 1359.87 193.64C1358.94 192.95 1357.56 192.6 1355.71 192.6H1182.6V188.44C1186.99 187.98 1189.71 187.23 1190.75 186.19C1191.79 185.15 1192.31 183.82 1192.31 182.2V20.54C1192.31 18.92 1191.79 17.59 1190.75 16.55C1189.71 15.51 1186.99 14.76 1182.6 14.3V10.14H1355.71C1357.56 10.14 1358.95 9.51004 1359.87 8.23004C1360.79 6.96004 1361.49 4.36004 1361.95 0.420044H1366.11V60.78H1361.95C1361.48 56.85 1360.79 54.25 1359.87 52.97C1358.94 51.7 1357.56 51.06 1355.71 51.06H1244.35V79.8501H1308.88C1312.35 79.8501 1314.83 79.1001 1316.34 77.6001C1317.84 76.1001 1318.82 74.19 1319.29 71.8801H1323.45V126H1319.29Z" fill="white"/>
<path d="M1293.87 150.28H1244.35V118.02H1274.45C1265.98 104.93 1256.99 92.19 1247.52 79.86H1244.35V75.78C1226.04 52.38 1205.95 30.43 1184.3 10.14H1182.6V14.3C1186.99 14.77 1189.71 15.51 1190.75 16.55C1191.79 17.59 1192.31 18.92 1192.31 20.54V182.2C1192.31 183.82 1191.79 185.15 1190.75 186.19C1189.71 187.23 1186.99 187.98 1182.6 188.44V192.6H1315.24C1308.68 178.16 1301.55 164.05 1293.87 150.28Z" fill="white"/>
<path d="M1447.99 182.2C1447.99 183.82 1448.51 185.15 1449.55 186.19C1450.59 187.23 1453.31 187.98 1457.7 188.44V192.6H1386.24V188.44C1390.63 187.98 1393.35 187.23 1394.39 186.19C1395.43 185.15 1395.95 183.82 1395.95 182.2V20.54C1395.95 18.92 1395.43 17.59 1394.39 16.55C1393.35 15.51 1390.63 14.76 1386.24 14.3V10.14H1513.21C1538.88 10.14 1557.5 14.82 1569.06 24.19C1580.62 33.56 1586.41 48.07 1586.41 67.73C1586.41 83.69 1581.73 96.18 1572.36 105.2C1562.99 114.22 1551.14 120.7 1536.8 124.63L1577.74 182.22C1580.52 186.38 1583.87 188.46 1587.8 188.46V192.62H1515.64V188.46C1520.73 188.23 1523.27 186.15 1523.27 182.22C1523.27 181.76 1522.34 180.14 1520.49 177.36C1518.64 174.58 1516.33 171.23 1513.55 167.3C1510.78 163.37 1507.71 159.15 1504.36 154.64C1501 150.13 1497.77 145.79 1494.65 141.63C1491.53 137.47 1488.81 133.77 1486.5 130.53C1484.18 127.29 1482.68 125.1 1481.99 123.94H1447.99V182.22V182.2ZM1506.27 87.15C1516.45 87.15 1523.44 85.24 1527.26 81.43C1531.08 77.61 1532.98 73.16 1532.98 68.07C1532.98 62.98 1531.07 58.53 1527.26 54.71C1523.44 50.89 1516.45 48.99 1506.27 48.99H1447.99V87.15H1506.27Z" fill="white"/>
</svg>
