<svg xmlns="http://www.w3.org/2000/svg" viewBox="0 0 919.97 395.62"><circle cx="195.62" cy="200" r="195.62" style="fill:#4f5985"/><path d="M507.51,302.59a194.67,194.67,0,0,0-115.7,37.91A224.39,224.39,0,0,1,396,658.92a194.63,194.63,0,0,0,111.49,34.91c108,0,195.62-87.58,195.62-195.62S615.55,302.59,507.51,302.59Z" transform="translate(-40.01 -301.79)" style="fill:#8968ab"/><path d="M732.21,500.61A224.41,224.41,0,0,1,623.46,693H960L734.1,301.79l-41.38,71.67A223.44,223.44,0,0,1,732.21,500.61Z" transform="translate(-40.01 -301.79)" style="fill:#fdd656"/></svg>